<svg width="18" height="20" viewBox="0 0 18 20" fill="none" xmlns="http://www.w3.org/2000/svg">
<path d="M7.16958 4.2745C7.03815 4.34889 6.91071 4.42816 6.78727 4.51232C5.72404 5.22212 4.93422 6.18865 4.41779 7.41191C3.90137 8.63517 3.64315 10.0095 3.64315 11.5348V12.8033C3.64315 13.8756 3.77226 14.9025 4.03047 15.8841C4.30387 16.8507 4.72916 17.7115 5.30635 18.4666C5.78529 19.0806 6.37928 19.5907 7.08831 19.9968H3.2589V3.4777H0V0H7.16958V4.2745Z" fill="#0D0B13"/>
<path fill-rule="evenodd" clip-rule="evenodd" d="M7.89734 19.4288C8.70986 19.8096 9.69843 20 10.863 20C12.0141 20 12.9959 19.8096 13.8084 19.4288C14.6209 19.0344 15.2777 18.5041 15.7788 17.8377C16.2934 17.1577 16.6658 16.3826 16.896 15.5122C17.1397 14.6283 17.2616 13.7035 17.2616 12.738V11.5956C17.2616 10.2221 17.0314 8.98455 16.571 7.883C16.1241 6.78146 15.4267 5.9111 14.4787 5.27193C13.5308 4.61917 12.3256 4.29278 10.863 4.29278C9.38696 4.29278 8.17495 4.61917 7.22702 5.27193C6.27908 5.9111 5.5749 6.78146 5.11447 7.883C4.65404 8.98455 4.42383 10.2221 4.42383 11.5956V12.738C4.42383 13.7035 4.53894 14.6283 4.76915 15.5122C5.01291 16.3826 5.39208 17.1577 5.90668 17.8377C6.42127 18.5041 7.08483 19.0344 7.89734 19.4288ZM13.1459 15.8766C12.6573 16.6585 11.8954 17.0495 10.8602 17.0495C9.82492 17.0495 9.0572 16.6521 8.55703 15.8573C8.05685 15.0626 7.80676 13.8256 7.80676 12.1464C7.80676 10.4031 8.05685 9.15327 8.55703 8.39697C9.06884 7.62786 9.83655 7.24331 10.8602 7.24331C11.8722 7.24331 12.6282 7.62786 13.1284 8.39697C13.6286 9.15327 13.8787 10.4159 13.8787 12.1848C13.8787 13.8513 13.6344 15.0818 13.1459 15.8766Z" fill="#0D0B13"/>
</svg>
