<svg width="16" height="16" viewBox="0 0 16 16" fill="none" xmlns="http://www.w3.org/2000/svg">
<path d="M6.98418 3.99215C6.89281 4.04422 6.80422 4.09971 6.7184 4.15863C5.97926 4.65548 5.43019 5.33205 5.07118 6.18834C4.71217 7.04462 4.53266 8.00662 4.53266 9.07433V9.96233C4.53266 10.7129 4.62242 11.4318 4.80192 12.1189C4.99199 12.7955 5.28764 13.398 5.68889 13.9266C6.02184 14.3564 6.43477 14.7135 6.92768 14.9977H4.26553V3.43439H2V1H6.98418V3.99215Z" fill="#562DB9"/>
<path fill-rule="evenodd" clip-rule="evenodd" d="M7.49011 14.6002C8.05496 14.8667 8.74219 15 9.55181 15C10.352 15 11.0345 14.8667 11.5994 14.6002C12.1642 14.3241 12.6208 13.9529 12.9692 13.4864C13.3269 13.0104 13.5858 12.4678 13.7458 11.8586C13.9153 11.2398 14 10.5925 14 9.91657V9.11693C14 8.15546 13.84 7.28918 13.5199 6.5181C13.2092 5.74702 12.7244 5.13777 12.0654 4.69035C11.4064 4.23342 10.5685 4.00495 9.55181 4.00495C8.52567 4.00495 7.6831 4.23342 7.02411 4.69035C6.36512 5.13777 5.87558 5.74702 5.5555 6.5181C5.23542 7.28918 5.07538 8.15546 5.07538 9.11693V9.91657C5.07538 10.5925 5.1554 11.2398 5.31544 11.8586C5.48489 12.4678 5.74849 13.0104 6.10623 13.4864C6.46397 13.9529 6.92526 14.3241 7.49011 14.6002ZM11.1388 12.1136C10.7992 12.661 10.2695 12.9346 9.54982 12.9346C8.83013 12.9346 8.29643 12.6565 7.94871 12.1001C7.60099 11.5438 7.42714 10.6779 7.42714 9.50247C7.42714 8.28215 7.60099 7.40729 7.94871 6.87788C8.30451 6.3395 8.83821 6.07032 9.54982 6.07032C10.2533 6.07032 10.779 6.3395 11.1267 6.87788C11.4744 7.40729 11.6482 8.29112 11.6482 9.52939C11.6482 10.6959 11.4784 11.5573 11.1388 12.1136Z" fill="#562DB9"/>
</svg>
