<svg width="130" height="27" viewBox="0 0 130 27" fill="none" xmlns="http://www.w3.org/2000/svg">
<path d="M8.96515 6.87623C8.8008 6.96921 8.64145 7.0683 8.48709 7.17349C7.15759 8.06065 6.16996 9.26871 5.5242 10.7977C4.87844 12.3266 4.55556 14.0443 4.55556 15.9508V17.5363C4.55556 18.8765 4.717 20.1601 5.03988 21.387C5.38175 22.5951 5.91355 23.671 6.63528 24.6148C7.23417 25.3823 7.97692 26.0198 8.86352 26.5273H4.07507V5.88032H0V1.53358H8.96515V6.87623Z" fill="#492D61"/>
<path fill-rule="evenodd" clip-rule="evenodd" d="M9.87518 25.8175C10.8912 26.2934 12.1273 26.5314 13.5836 26.5314C15.0229 26.5314 16.2506 26.2934 17.2666 25.8175C18.2826 25.3245 19.1039 24.6616 19.7304 23.8287C20.3739 22.9789 20.8396 22.01 21.1275 20.9221C21.4323 19.8173 21.5847 18.6615 21.5847 17.4546V16.0268C21.5847 14.3101 21.2968 12.7633 20.7211 11.3865C20.1623 10.0097 19.2902 8.92181 18.1048 8.12292C16.9195 7.30703 15.4124 6.89909 13.5836 6.89909C11.7379 6.89909 10.2223 7.30703 9.03697 8.12292C7.85163 8.92181 6.97109 10.0097 6.39535 11.3865C5.81962 12.7633 5.53175 14.3101 5.53175 16.0268V17.4546C5.53175 18.6615 5.67568 19.8173 5.96355 20.9221C6.26835 22.01 6.74249 22.9789 7.38596 23.8287C8.02943 24.6616 8.85917 25.3245 9.87518 25.8175ZM16.4382 21.3775C15.8273 22.3549 14.8745 22.8435 13.58 22.8435C12.2855 22.8435 11.3255 22.3469 10.7001 21.3535C10.0746 20.3602 9.76191 18.8141 9.76191 16.7152C9.76191 14.5363 10.0746 12.9742 10.7001 12.0289C11.3401 11.0676 12.3 10.5869 13.58 10.5869C14.8455 10.5869 15.7909 11.0676 16.4163 12.0289C17.0418 12.9742 17.3545 14.5523 17.3545 16.7633C17.3545 18.8461 17.0491 20.3842 16.4382 21.3775Z" fill="#492D61"/>
<path d="M72.3976 26.1542C72.562 26.0612 72.7213 25.9621 72.8757 25.8569C74.2052 24.9698 75.1928 23.7617 75.8386 22.2328C76.4844 20.7038 76.8072 18.9861 76.8072 17.0797L76.8072 15.4941C76.8072 14.1539 76.6458 12.8703 76.3229 11.6434C75.981 10.4354 75.4492 9.35945 74.7275 8.41565C74.1286 7.64816 73.3859 7.01064 72.4993 6.50309L77.2877 6.50309L77.2877 23.3392L81.3628 23.3392L81.3628 26.9342L72.3976 26.9342L72.3976 26.1542Z" fill="#492D61"/>
<path fill-rule="evenodd" clip-rule="evenodd" d="M71.4876 7.21295C70.4716 6.73702 69.2355 6.49905 67.7792 6.49905C66.3398 6.49905 65.1122 6.73702 64.0962 7.21295C63.0802 7.70588 62.2589 8.36879 61.6323 9.20168C60.9889 10.0516 60.5232 11.0204 60.2353 12.1083C59.9305 13.2131 59.7781 14.369 59.7781 15.5758L59.7781 17.0036C59.7781 18.7204 60.066 20.2672 60.6417 21.644C61.2005 23.0208 62.0726 24.1086 63.258 24.9075C64.4433 25.7234 65.9504 26.1313 67.7792 26.1313C69.6249 26.1313 71.1405 25.7234 72.3258 24.9075C73.5112 24.1086 74.3917 23.0208 74.9674 21.644C75.5432 20.2672 75.831 18.7204 75.831 17.0036L75.831 15.5758C75.831 14.369 75.6871 13.2131 75.3992 12.1083C75.0944 11.0204 74.6203 10.0516 73.9768 9.20168C73.3334 8.36879 72.5036 7.70588 71.4876 7.21295ZM64.9246 11.6529C65.5355 10.6755 66.4882 10.1869 67.7828 10.1869C69.0773 10.1869 70.0373 10.6836 70.6627 11.6769C71.2882 12.6703 71.6009 14.2164 71.6009 16.3152C71.6009 18.4942 71.2882 20.0563 70.6627 21.0016C70.0227 21.9629 69.0627 22.4435 67.7828 22.4435C66.5173 22.4435 65.5719 21.9629 64.9465 21.0016C64.321 20.0563 64.0083 18.4781 64.0083 16.2671C64.0083 14.1843 64.3137 12.6462 64.9246 11.6529Z" fill="#492D61"/>
<path d="M27.6365 26.4591V7.57691H32.47V26.4591H27.6365ZM24.9937 11.1934V7.57691H32.47V11.1934H24.9937ZM29.4099 5.31661C28.4595 5.31661 27.7524 5.07319 27.2887 4.58636C26.8483 4.07634 26.628 3.45041 26.628 2.70857C26.628 1.92036 26.8483 1.28284 27.2887 0.796003C27.7524 0.309168 28.4595 0.0657501 29.4099 0.0657501C30.3604 0.0657501 31.0559 0.309168 31.4964 0.796003C31.9368 1.28284 32.1571 1.92036 32.1571 2.70857C32.1571 3.45041 31.9368 4.07634 31.4964 4.58636C31.0559 5.07319 30.3604 5.31661 29.4099 5.31661Z" fill="#492D61"/>
<path d="M102.245 26.4674C101.294 26.4674 100.587 26.224 100.124 25.7372C99.6831 25.2271 99.4629 24.6012 99.4629 23.8594C99.4629 23.0712 99.6831 22.4336 100.124 21.9468C100.587 21.46 101.294 21.2166 102.245 21.2166C103.195 21.2166 103.891 21.46 104.331 21.9468C104.772 22.4336 104.992 23.0712 104.992 23.8594C104.992 24.6012 104.772 25.2271 104.331 25.7372C103.891 26.224 103.195 26.4674 102.245 26.4674Z" fill="#492D61"/>
<path d="M125.166 26.4591V7.57691H130V26.4591H125.166ZM122.523 11.1934V7.57691H130V11.1934H122.523ZM126.94 5.31661C125.989 5.31661 125.282 5.07319 124.819 4.58636C124.378 4.07634 124.158 3.45041 124.158 2.70857C124.158 1.92036 124.378 1.28284 124.819 0.796003C125.282 0.309168 125.989 0.0657501 126.94 0.0657501C127.89 0.0657501 128.586 0.309168 129.026 0.796003C129.467 1.28284 129.687 1.92036 129.687 2.70857C129.687 3.45041 129.467 4.07634 129.026 4.58636C128.586 5.07319 127.89 5.31661 126.94 5.31661Z" fill="#492D61"/>
<path d="M37.9624 26.3725V7.49024H41.7875V15.5926H41.4398C41.4398 13.6684 41.6948 12.0688 42.2048 10.7938C42.7148 9.49554 43.4683 8.52187 44.4651 7.87276C45.4852 7.22364 46.7486 6.89909 48.2555 6.89909H48.4641C50.7128 6.89909 52.4168 7.62934 53.5759 9.08984C54.735 10.5272 55.3146 12.6831 55.3146 15.5578V26.3725H50.481V15.1405C50.481 13.9814 50.1449 13.0425 49.4726 12.3238C48.8235 11.6052 47.9193 11.2458 46.7602 11.2458C45.5779 11.2458 44.6158 11.6167 43.874 12.3586C43.1553 13.0772 42.796 14.0509 42.796 15.2796V26.3725H37.9624Z" fill="#492D61"/>
<path d="M96.0712 6.90923V10.7126L82.7593 10.7126L82.7593 6.90923L96.0712 6.90923Z" fill="#492D61"/>
<path d="M86.0193 1.47581L90.9094 1.47581L90.9094 22.1228H96.207L96.207 26.4695H86.0193L86.0193 1.47581Z" fill="#492D61"/>
<path d="M120.522 6.90923V10.7126L107.21 10.7126L107.21 6.90923L120.522 6.90923Z" fill="#492D61"/>
<path d="M110.47 1.47581L115.36 1.47581L115.36 22.1228H120.658L120.658 26.4695H110.47L110.47 1.47581Z" fill="#492D61"/>
</svg>
