<svg width="120" height="29" viewBox="0 0 120 29" fill="none" xmlns="http://www.w3.org/2000/svg">
<path d="M10.2462 6.09153C10.0584 6.19754 9.87627 6.31052 9.69985 6.43046C8.18037 7.44197 7.05161 8.81936 6.31357 10.5626C5.57554 12.3059 5.20652 14.2643 5.20652 16.438V18.2459C5.20652 19.7739 5.39103 21.2374 5.76005 22.6363C6.15077 24.0137 6.75856 25.2404 7.58343 26.3165C8.2679 27.1916 9.11678 27.9184 10.1301 28.4971H4.65737V4.95602H0V0H10.2462V6.09153Z" fill="#562DB9"/>
<path fill-rule="evenodd" clip-rule="evenodd" d="M11.2863 27.6878C12.4475 28.2304 13.8603 28.5017 15.5246 28.5017C17.1696 28.5017 18.5727 28.2304 19.7339 27.6878C20.8951 27.1257 21.8338 26.3699 22.5498 25.4203C23.2852 24.4513 23.8174 23.3466 24.1465 22.1063C24.4948 20.8466 24.669 19.5287 24.669 18.1527V16.5248C24.669 14.5674 24.34 12.8038 23.682 11.234C23.0433 9.66417 22.0466 8.42383 20.6919 7.51296C19.3372 6.58271 17.6148 6.11759 15.5246 6.11759C13.4151 6.11759 11.683 6.58271 10.3283 7.51296C8.97358 8.42383 7.96722 9.66417 7.30921 11.234C6.65121 12.8038 6.3222 14.5674 6.3222 16.5248V18.1527C6.3222 19.5287 6.4867 20.8466 6.81571 22.1063C7.16406 23.3466 7.70595 24.4513 8.44137 25.4203C9.17679 26.3699 10.1251 27.1257 11.2863 27.6878ZM18.7871 22.6255C18.0889 23.7398 17 24.297 15.5205 24.297C14.041 24.297 12.9439 23.7307 12.2291 22.5981C11.5142 21.4655 11.1568 19.7027 11.1568 17.3097C11.1568 14.8253 11.5142 13.0442 12.2291 11.9664C12.9605 10.8704 14.0577 10.3223 15.5205 10.3223C16.9668 10.3223 18.0473 10.8704 18.7621 11.9664C19.477 13.0442 19.8344 14.8436 19.8344 17.3645C19.8344 19.7392 19.4853 21.4929 18.7871 22.6255Z" fill="#562DB9"/>
<path d="M31.2333 5.89443C30.3499 5.89443 29.6097 5.61888 29.0128 5.06778C28.4398 4.49271 28.1533 3.78586 28.1533 2.94722C28.1533 2.10858 28.4398 1.41371 29.0128 0.8626C29.6097 0.287533 30.3499 0 31.2333 0C32.1167 0 32.8449 0.287533 33.4179 0.8626C34.0148 1.41371 34.3132 2.10858 34.3132 2.94722C34.3132 3.78586 34.0148 4.49271 33.4179 5.06778C32.8449 5.61888 32.1167 5.89443 31.2333 5.89443ZM33.7044 8.26658V28.1783H28.6905V8.26658H33.7044Z" fill="#562DB9"/>
<path d="M49.6529 7.97905C52.0166 7.97905 53.9267 8.73382 55.3831 10.2434C56.8395 11.729 57.5677 13.8136 57.5677 16.4972V28.1783H52.5538V17.1801C52.5538 15.5987 52.1599 14.3886 51.372 13.55C50.5841 12.6874 49.5097 12.2561 48.1488 12.2561C46.764 12.2561 45.6657 12.6874 44.8539 13.55C44.066 14.3886 43.6721 15.5987 43.6721 17.1801V28.1783H38.6582V8.26658H43.6721V10.7466C44.3406 9.88396 45.1882 9.21305 46.2148 8.73383C47.2653 8.23064 48.4114 7.97905 49.6529 7.97905Z" fill="#562DB9"/>
<path d="M61.0464 18.1505C61.0464 16.1378 61.4403 14.3527 62.2282 12.7952C63.04 11.2378 64.1264 10.0397 65.4873 9.20107C66.8721 8.36243 68.412 7.94311 70.1072 7.94311C71.5875 7.94311 72.8768 8.24262 73.9751 8.84165C75.0972 9.44068 75.9926 10.1955 76.6611 11.106V8.26658H81.7108V28.1783H76.6611V25.267C76.0165 26.2015 75.1211 26.9802 73.9751 27.6032C72.8529 28.2022 71.5517 28.5017 70.0714 28.5017C68.4001 28.5017 66.8721 28.0704 65.4873 27.2078C64.1264 26.3452 63.04 25.1352 62.2282 23.5777C61.4403 21.9963 61.0464 20.1872 61.0464 18.1505ZM76.6611 18.2224C76.6611 17.0004 76.4223 15.9581 75.9448 15.0955C75.4673 14.2089 74.8227 13.538 74.0109 13.0828C73.1991 12.6035 72.3277 12.3639 71.3965 12.3639C70.4654 12.3639 69.6058 12.5916 68.8179 13.0468C68.03 13.5021 67.3854 14.173 66.884 15.0596C66.4065 15.9222 66.1677 16.9525 66.1677 18.1505C66.1677 19.3486 66.4065 20.4029 66.884 21.3134C67.3854 22.2 68.03 22.8829 68.8179 23.3621C69.6297 23.8413 70.4892 24.0809 71.3965 24.0809C72.3277 24.0809 73.1991 23.8533 74.0109 23.398C74.8227 22.9188 75.4673 22.2479 75.9448 21.3853C76.4223 20.4987 76.6611 19.4444 76.6611 18.2224Z" fill="#562DB9"/>
<path d="M92.4454 12.3999V22.0322C92.4454 22.7032 92.6006 23.1944 92.911 23.5059C93.2452 23.7934 93.7944 23.9371 94.5584 23.9371H96.8863V28.1783H93.7347C89.5087 28.1783 87.3957 26.1176 87.3957 21.9963V12.3999H85.032V8.26658H87.3957V3.34257H92.4454V8.26658H96.8863V12.3999H92.4454Z" fill="#562DB9"/>
<path d="M106.33 12.3999V22.0322C106.33 22.7032 106.485 23.1944 106.796 23.5059C107.13 23.7934 107.679 23.9371 108.443 23.9371H110.771V28.1783H107.619C103.393 28.1783 101.28 26.1176 101.28 21.9963V12.3999H98.9167V8.26658H101.28V3.34257H106.33V8.26658H110.771V12.3999H106.33Z" fill="#562DB9"/>
<path d="M116.92 5.89443C116.037 5.89443 115.296 5.61888 114.7 5.06778C114.127 4.49271 113.84 3.78586 113.84 2.94722C113.84 2.10858 114.127 1.41371 114.7 0.8626C115.296 0.287533 116.037 0 116.92 0C117.803 0 118.532 0.287533 119.105 0.8626C119.702 1.41371 120 2.10858 120 2.94722C120 3.78586 119.702 4.49271 119.105 5.06778C118.532 5.61888 117.803 5.89443 116.92 5.89443ZM119.391 8.26658V28.1783H114.377V8.26658H119.391Z" fill="#562DB9"/>
</svg>
